# xmcd
#
# Track frame offsets:
#	150
#	17512
#	34521
#	50686
#	72492
#	94149
#	116997
#	136334
#	153597
#	190558
#	216442
#
# Disc length: 3026 seconds
#
# Revision: 1
# Processed by: cddbd v1.5.2PL0 Copyright (c) Steve Scherf et al.
# Submitted via: audiograbber 1.83.01
#
DISCID=9c0bd00b
DTITLE=Armin Ruehl - Hausmarke
DYEAR=2007
DGENRE=Blues
TTITLE0=Indroduction
TTITLE1=W.G.A.T.A.P. (with god all things are possible)
TTITLE2=Do you believe
TTITLE3=La Rampa
TTITLE4=Punks not dead
TTITLE5=Wenn du bei mir bist
TTITLE6=Rauenberg Underground
TTITLE7=Sweeter than honey
TTITLE8=Pots and Pans
TTITLE9=Der Mai ist gekommen
TTITLE10=Abendglocken
EXTD=Groenies Drummer First Album
EXTT0=
EXTT1=
EXTT2=
EXTT3=
EXTT4=
EXTT5=
EXTT6=
EXTT7=
EXTT8=
EXTT9=
EXTT10=
PLAYORDER=
